<svg width="57" height="56" viewBox="0 0 57 56" fill="none" xmlns="http://www.w3.org/2000/svg">
<path d="M39.3178 9.43672L48.0156 19.2091C48.3659 19.6209 48.3659 20.2926 48.0156 20.7041L26.9715 44.366L18.04 45.4819C16.8433 45.6337 15.8218 44.4959 15.9678 43.1526L16.96 33.0986L37.9749 9.43672C38.3544 9.02485 38.9384 9.02485 39.3178 9.43672ZM54.9038 6.95562L50.2047 1.66853C48.7453 0.0219495 46.3809 0.0219495 44.8924 1.66853L41.5069 5.50402C41.1274 5.91559 41.1274 6.58724 41.5069 6.9991L50.1755 16.7714C50.5549 17.183 51.1385 17.183 51.518 16.7714L54.9038 12.9362C56.3924 11.2786 56.3924 8.60249 54.9038 6.95562ZM37.5374 37.9306V48.9595H6.71517V14.2903H28.8392C29.1603 14.2903 29.4522 14.1496 29.6565 13.9112L33.5095 9.57741C34.2392 8.75426 33.7137 7.35667 32.6922 7.35667H5.16815C2.62883 7.35667 0.556641 9.686 0.556641 12.5571V50.6931C0.556641 53.5642 2.62883 55.8935 5.16815 55.8935H39.0548C41.6233 55.8935 43.6959 53.5642 43.6959 50.6931V33.5968C43.6959 32.4377 42.4407 31.8633 41.711 32.6759L37.8584 37.0097C37.6541 37.2586 37.5374 37.5838 37.5374 37.9306Z" fill="white"/>
</svg>
