<svg width="41" height="39" viewBox="0 0 41 39" fill="none" xmlns="http://www.w3.org/2000/svg">
<path d="M38.0062 15.8895H24.8719V3.69408C24.8719 2.19666 23.5643 0.982422 21.9531 0.982422H19.0344C17.4232 0.982422 16.1156 2.19666 16.1156 3.69408V15.8895H2.98125C1.3701 15.8895 0.0625 17.1038 0.0625 18.6012V21.3099C0.0625 22.8073 1.3701 24.0217 2.98125 24.0217H16.1156V36.2171C16.1156 37.7145 17.4232 38.9287 19.0344 38.9287H21.9531C23.5643 38.9287 24.8719 37.7145 24.8719 36.2171V24.0217H38.0062C39.6174 24.0217 40.925 22.8073 40.925 21.3099V18.6012C40.925 17.1038 39.6174 15.8895 38.0062 15.8895Z" fill="white"/>
</svg>
